<?xml version="1.0" encoding="UTF-8" standalone="no"?>
<!-- Created with Inkscape (http://www.inkscape.org/) -->

<svg
   version="1.1"
   id="svg2"
   width="500"
   height="158"
   viewBox="0 0 500 158"
   sodipodi:docname="leaf.svg"
   inkscape:version="1.2.1 (9c6d41e410, 2022-07-14, custom)"
   xmlns:inkscape="http://www.inkscape.org/namespaces/inkscape"
   xmlns:sodipodi="http://sodipodi.sourceforge.net/DTD/sodipodi-0.dtd"
   xmlns="http://www.w3.org/2000/svg"
   xmlns:svg="http://www.w3.org/2000/svg">
  <defs
     id="defs6" />
  <sodipodi:namedview
     id="namedview4"
     pagecolor="#22ffff"
     bordercolor="#666666"
     borderopacity="1.0"
     inkscape:showpageshadow="2"
     inkscape:pageopacity="0"
     inkscape:pagecheckerboard="0"
     inkscape:deskcolor="#d1d1d1"
     showgrid="false"
     inkscape:zoom="1.7725716"
     inkscape:cx="328.33653"
     inkscape:cy="197.45324"
     inkscape:window-width="1920"
     inkscape:window-height="1028"
     inkscape:window-x="0"
     inkscape:window-y="26"
     inkscape:window-maximized="1"
     inkscape:current-layer="g8"
     guidecolor="#129b5a"
     guideopacity="0.83529412" />
  <g
     inkscape:groupmode="layer"
     inkscape:label="Image"
     id="g8"
     transform="translate(-53.659348,-93.17025)">
    <g
       id="g182"
       transform="matrix(0.54029874,0,0,0.54662111,124.24063,156.84047)"
       style="fill:#ffffff;fill-opacity:1"
       inkscape:export-filename="leaf_green.svg"
       inkscape:export-xdpi="96"
       inkscape:export-ydpi="96">
      <path
         style="fill:#ffffff;fill-opacity:1"
         d="m 165.02382,133.29346 c -2.2,-0.99443 -5.70964,-2.97016 -7.79919,-4.3905 -2.08955,-1.42034 -5.46455,-3.12478 -7.5,-3.78765 -2.03545,-0.66287 -7.39252,-2.92667 -11.90461,-5.03067 -4.51208,-2.104 -9.46208,-4.13144 -11,-4.50542 -1.53791,-0.37399 -6.26809,-2.63778 -10.51151,-5.03065 -4.24342,-2.39288 -8.10842,-4.35068 -8.58888,-4.35068 -2.79316,0 -19.392414,-16.144725 -23.432104,-22.790475 -4.31858,-7.10457 -6.01482,-12.33686 -9.18515,-28.332959 -4.8445,-24.44313 -5.61879,-52.3795699 -1.52195,-54.91155989 1.11435,-0.6887 6.26201,1.07699999 17.43471,5.98028999 2.74522,1.20478 7.470222,2.78494 10.500004,3.51147 22.48936,5.3928999 48.12269,12.9956799 54.34084,16.1173599 2.65769,1.33423 5.41216,2.42587 6.12104,2.42587 0.70888,0 4.71174,2.73226 8.89525,6.0717 8.49896,6.78418 18.85884,20.98365 20.65536,28.31069 1.49246,6.086889 3.32892,9.117609 5.52482,9.117609 1.53742,0 2.51972,-1.6433 4.62549,-7.738019 4.41012,-12.76414 10.34136,-21.0403 21.2331,-29.62761 9.96048,-7.85308 15.79359,-10.07604 51.61278,-19.66924 19.86088,-5.3191999 27.47841,-7.7950999 34.16736,-11.1052999 2.56704,-1.27037 6.43697,-2.59273999 8.59985,-2.93859999 l 3.93249,-0.62883 0.65015,4.74336999 c 1.12612,8.2159699 0.67201,29.5645299 -0.85009,39.9642299 -2.99748,20.48007 -9.94175,37.869099 -19.23675,48.170409 -3.73523,4.13962 -14.66615,13.329595 -15.85474,13.329595 -0.341,0 -4.22089,2.025 -8.62198,4.5 -4.40109,2.475 -8.42814,4.5 -8.949,4.5 -0.89195,0 -2.55969,0.70609 -15.61693,6.61198 -2.90379,1.31341 -5.85134,2.38802 -6.5501,2.38802 -0.69876,0 -6.07511,2.475 -11.94744,5.5 -5.87233,3.025 -11.58728,5.5 -12.69989,5.5 -3.21763,0 -2.53745,-5.27456 1.99255,-15.45146 2.19149,-4.9233 3.98452,-9.26342 3.98452,-9.6447 0,-1.15437 11.54677,-17.697345 14.4123,-20.648395 1.47157,-1.5155 9.45279,-9.64598 17.73603,-18.06773 8.28324,-8.421759 14.81877,-15.553949 14.52341,-15.849309 -0.97776,-0.97776 -17.56325,7.71278 -21.89058,11.47033 -5.66059,4.915269 -16.77624,16.176159 -16.80034,17.019879 -0.0106,0.36926 -1.59659,2.47138 -3.52454,4.67138 -3.23748,3.69434 -8.27833,11.343605 -14.45628,21.936765 -6.08284,10.43007 -8.51389,13.50022 -10.71482,13.53163 -2.76824,0.0395 -4.14685,-2.47422 -5.32418,-9.70801 -1.05228,-6.46548 -2.77466,-8.77169 -5.82744,-7.80277 -1.39236,0.44192 -2.45362,2.06095 -3.18097,4.85278 -1.74381,6.69339 -4.26552,11.16581 -6.45259,11.44409 -2.21445,0.28177 -5.34696,-3.7583 -13.30537,-17.16021 -7.23691,-12.186935 -8.47001,-14.085345 -11.69463,-18.004485 -7.55804,-9.18587 -14.24617,-16.31137 -17.62138,-18.77374 -2.02342,-1.47617 -3.95961,-3.138079 -4.30265,-3.693129 -0.76193,-1.23283 -15.55219,-9.48003 -16.07092,-8.9613 -0.37,0.37 6.43764,8.38603 13.99495,16.479139 2.2,2.35598 5.575,6.10518 7.5,8.33156 1.925,2.22638 5.4125,6.17304 7.75,8.77035 2.3375,2.59731 4.25,5.223 4.25,5.83487 0,0.61187 0.79481,1.83178 1.76625,2.71092 0.97143,0.87913 3.28131,4.661385 5.13305,8.404985 1.85175,3.74361 4.84876,9.73422 6.66002,13.31248 1.81127,3.57825 3.43889,8.30325 3.61695,10.5 0.29481,3.63724 0.10038,4.01211 -2.17627,4.19589 -1.375,0.111 -4.3,-0.61181 -6.5,-1.60624 z"
         id="path184" />
    </g>
    <text
       xml:space="preserve"
       style="font-style:normal;font-variant:normal;font-weight:normal;font-stretch:normal;font-size:59.3757px;line-height:1.25;font-family:'Google Sans';-inkscape-font-specification:'Google Sans';fill:#ffffff;fill-opacity:1;stroke:none;stroke-width:2.474"
       x="322.14703"
       y="209.52016"
       id="text8187"
       inkscape:export-filename="leaf_green.svg"
       inkscape:export-xdpi="96"
       inkscape:export-ydpi="96"
       transform="scale(0.96526634,1.0359835)"><tspan
         sodipodi:role="line"
         id="tspan8185"
         x="322.14703"
         y="209.52016"
         style="fill:#ffffff;fill-opacity:1;stroke-width:2.474">LEAF</tspan></text>
    <text
       xml:space="preserve"
       style="font-style:normal;font-weight:normal;font-size:40px;line-height:1.25;font-family:sans-serif;fill:#000000;fill-opacity:1;stroke:none"
       x="194.92825"
       y="237.63789"
       id="text499"><tspan
         sodipodi:role="line"
         id="tspan501"
         x="194.92825"
         y="237.63789"
         style="font-size:29.3333px;fill:#ffffff;fill-opacity:1" /></text>
  </g>
</svg>
